<svg width="260" height="260" viewBox="0 0 260 260" fill="none" xmlns="http://www.w3.org/2000/svg">
<path d="M49.4805 230C43.8528 230 39.1991 228.16 35.5195 224.481C31.8398 220.801 30 216.147 30 210.519V49.4805C30 43.8528 31.8398 39.1991 35.5195 35.5195C39.1991 31.8398 43.8528 30 49.4805 30H210.519C216.147 30 220.801 31.8398 224.481 35.5195C228.16 39.1991 230 43.8528 230 49.4805V210.519C230 216.147 228.16 220.801 224.481 224.481C220.801 228.16 216.147 230 210.519 230H49.4805ZM39.0909 121.558V210.519C39.0909 213.117 40.1732 215.498 42.3377 217.662C44.5022 219.827 46.8831 220.909 49.4805 220.909H210.519C213.117 220.909 215.498 219.827 217.662 217.662C219.827 215.498 220.909 213.117 220.909 210.519V121.558H178.052V178.052H81.9481V121.558H39.0909ZM91.039 168.961H168.961V121.558H91.039V168.961ZM39.0909 112.468H220.909V49.4805C220.909 46.8831 219.827 44.5022 217.662 42.3377C215.498 40.1732 213.117 39.0909 210.519 39.0909H49.4805C46.8831 39.0909 44.5022 40.1732 42.3377 42.3377C40.1732 44.5022 39.0909 46.8831 39.0909 49.4805V112.468ZM77.4026 81.2987C75.0216 81.2987 72.9113 80.3788 71.0714 78.539C69.2316 76.6991 68.3117 74.5887 68.3117 72.2078C68.3117 69.8268 69.2316 67.7164 71.0714 65.8766C72.9113 64.0368 75.0216 63.1169 77.4026 63.1169C79.7836 63.1169 81.8939 64.0368 83.7338 65.8766C85.5736 67.7164 86.4935 69.8268 86.4935 72.2078C86.4935 74.5887 85.5736 76.6991 83.7338 78.539C81.8939 80.3788 79.7836 81.2987 77.4026 81.2987ZM129.351 81.2987C126.97 81.2987 124.859 80.3788 123.019 78.539C121.18 76.6991 120.26 74.5887 120.26 72.2078C120.26 69.8268 121.18 67.7164 123.019 65.8766C124.859 64.0368 126.97 63.1169 129.351 63.1169C131.732 63.1169 133.842 64.0368 135.682 65.8766C137.522 67.7164 138.442 69.8268 138.442 72.2078C138.442 74.5887 137.522 76.6991 135.682 78.539C133.842 80.3788 131.732 81.2987 129.351 81.2987ZM181.299 81.2987C178.918 81.2987 176.807 80.3788 174.968 78.539C173.128 76.6991 172.208 74.5887 172.208 72.2078C172.208 69.8268 173.128 67.7164 174.968 65.8766C176.807 64.0368 178.918 63.1169 181.299 63.1169C183.68 63.1169 185.79 64.0368 187.63 65.8766C189.47 67.7164 190.39 69.8268 190.39 72.2078C190.39 74.5887 189.47 76.6991 187.63 78.539C185.79 80.3788 183.68 81.2987 181.299 81.2987Z" fill="#1C1B1F"/>
</svg>
