<svg width="336" height="336" viewBox="0 0 336 336" fill="none" xmlns="http://www.w3.org/2000/svg">
<path d="M81.039 276C74.961 276 69.9351 274.013 65.961 270.039C61.987 266.065 60 261.039 60 254.961V81.039C60 74.961 61.987 69.9351 65.961 65.961C69.9351 61.987 74.961 60 81.039 60H254.961C261.039 60 266.065 61.987 270.039 65.961C274.013 69.9351 276 74.961 276 81.039V254.961C276 261.039 274.013 266.065 270.039 270.039C266.065 274.013 261.039 276 254.961 276H81.039ZM69.8182 158.883V254.961C69.8182 257.766 70.987 260.338 73.3247 262.675C75.6623 265.013 78.2338 266.182 81.039 266.182H254.961C257.766 266.182 260.338 265.013 262.675 262.675C265.013 260.338 266.182 257.766 266.182 254.961V158.883H219.896V219.896H116.104V158.883H69.8182ZM125.922 210.078H210.078V158.883H125.922V210.078ZM69.8182 149.065H266.182V81.039C266.182 78.2338 265.013 75.6623 262.675 73.3247C260.338 70.987 257.766 69.8182 254.961 69.8182H81.039C78.2338 69.8182 75.6623 70.987 73.3247 73.3247C70.987 75.6623 69.8182 78.2338 69.8182 81.039V149.065ZM111.195 115.403C108.623 115.403 106.344 114.409 104.357 112.422C102.37 110.435 101.377 108.156 101.377 105.584C101.377 103.013 102.37 100.734 104.357 98.7468C106.344 96.7597 108.623 95.7662 111.195 95.7662C113.766 95.7662 116.045 96.7597 118.032 98.7468C120.019 100.734 121.013 103.013 121.013 105.584C121.013 108.156 120.019 110.435 118.032 112.422C116.045 114.409 113.766 115.403 111.195 115.403ZM167.299 115.403C164.727 115.403 162.448 114.409 160.461 112.422C158.474 110.435 157.481 108.156 157.481 105.584C157.481 103.013 158.474 100.734 160.461 98.7468C162.448 96.7597 164.727 95.7662 167.299 95.7662C169.87 95.7662 172.149 96.7597 174.136 98.7468C176.123 100.734 177.117 103.013 177.117 105.584C177.117 108.156 176.123 110.435 174.136 112.422C172.149 114.409 169.87 115.403 167.299 115.403ZM223.403 115.403C220.831 115.403 218.552 114.409 216.565 112.422C214.578 110.435 213.584 108.156 213.584 105.584C213.584 103.013 214.578 100.734 216.565 98.7468C218.552 96.7597 220.831 95.7662 223.403 95.7662C225.974 95.7662 228.253 96.7597 230.24 98.7468C232.227 100.734 233.221 103.013 233.221 105.584C233.221 108.156 232.227 110.435 230.24 112.422C228.253 114.409 225.974 115.403 223.403 115.403Z" fill="#1C1B1F"/>
</svg>
